<?xml version="1.0" standalone="no"?>
<!DOCTYPE svg PUBLIC "-//W3C//DTD SVG 20010904//EN"
 "http://www.w3.org/TR/2001/REC-SVG-20010904/DTD/svg10.dtd">
<svg version="1.0" xmlns="http://www.w3.org/2000/svg"
 width="1305.000000pt" height="191.000000pt" viewBox="0 0 1305.000000 191.000000"
 preserveAspectRatio="xMidYMid meet">

<g transform="translate(0.000000,191.000000) scale(0.100000,-0.100000)"
fill="#162456" stroke="none">
<path d="M0 945 l0 -945 6525 0 6525 0 0 946 0 946 -22 -5 c-13 -2 -140 -32
-283 -65 -323 -76 -693 -150 -1235 -247 -47 -8 -110 -20 -140 -25 -245 -45
-939 -145 -1315 -190 -93 -11 -206 -25 -250 -30 -513 -63 -1392 -134 -2055
-165 -980 -46 -2168 -37 -3055 25 -77 5 -210 14 -295 20 -453 31 -1133 99
-1585 160 -44 6 -114 15 -155 20 -41 6 -151 22 -245 36 -93 14 -213 31 -265
39 -79 12 -366 60 -475 80 -632 114 -1184 227 -1519 310 -77 19 -143 35 -148
35 -4 0 -8 -425 -8 -945z"/>
</g>
</svg>
